<?xml version="1.0" encoding="UTF-8"?>
<svg id="_レイヤー_2" data-name="レイヤー 2" xmlns="http://www.w3.org/2000/svg" viewBox="0 0 621.52 132.31">
  <defs>
    <style>
      .cls-1 {
        fill: #fff;
      }
    </style>
  </defs>
  <g id="_レイヤー_1-2" data-name="レイヤー 1">
    <g>
      <g>
        <path class="cls-1" d="M205.56,92.71l-22.73-36.93h-.24l.32,36.93h-13.24V36.24h15.55l22.65,36.85h.24l-.32-36.85h13.24v56.47h-15.47Z"/>
        <path class="cls-1" d="M246.16,47.89v11.64h21.85v11.25h-21.85v21.93h-13.48V36.24h37.17v11.65h-23.69Z"/>
        <path class="cls-1" d="M302.79,47.89v44.83h-13.64V47.89h-15.95v-11.65h45.54v11.65h-15.95Z"/>
        <path class="cls-1" d="M385.39,92.79c-3.7,.9-7.72,1.36-12.08,1.36s-8.68-.72-12.48-2.15c-3.8-1.44-7.07-3.46-9.81-6.06-2.74-2.6-4.88-5.73-6.42-9.37-1.54-3.64-2.31-7.7-2.31-12.16s.78-8.61,2.35-12.28c1.57-3.67,3.74-6.79,6.5-9.37,2.76-2.58,6.01-4.56,9.73-5.94,3.72-1.38,7.74-2.07,12.04-2.07s8.61,.68,12.44,2.03c3.83,1.36,6.94,3.18,9.33,5.46l-8.61,9.81c-1.33-1.54-3.08-2.8-5.26-3.79-2.18-.98-4.65-1.48-7.42-1.48-2.39,0-4.6,.44-6.62,1.32-2.02,.88-3.78,2.1-5.26,3.67-1.49,1.57-2.65,3.43-3.47,5.58-.83,2.15-1.24,4.51-1.24,7.06s.37,5,1.12,7.18c.74,2.18,1.85,4.05,3.31,5.62,1.46,1.57,3.27,2.79,5.42,3.67,2.15,.88,4.61,1.32,7.38,1.32,1.6,0,3.11-.12,4.55-.36,1.44-.24,2.76-.62,3.99-1.16v-10.29h-10.77v-11.01h23.29v29.91c-2.77,1.44-6,2.61-9.69,3.51Z"/>
        <path class="cls-1" d="M404.97,58.41c2.34-2.23,5.06-3.91,8.18-5.03,3.11-1.12,6.29-1.67,9.53-1.67s6.18,.41,8.49,1.24c2.31,.83,4.19,2.1,5.62,3.83,1.44,1.73,2.49,3.91,3.15,6.54,.66,2.63,1,5.76,1,9.37v20.02h-11.96v-4.23h-.24c-1.01,1.65-2.54,2.92-4.59,3.83-2.05,.9-4.27,1.36-6.66,1.36-1.6,0-3.24-.21-4.95-.64-1.7-.42-3.26-1.12-4.67-2.07-1.41-.96-2.57-2.23-3.47-3.83-.9-1.6-1.36-3.56-1.36-5.9,0-2.87,.78-5.18,2.35-6.94,1.57-1.75,3.59-3.11,6.06-4.07,2.47-.96,5.22-1.59,8.26-1.91,3.03-.32,5.98-.48,8.85-.48v-.64c0-1.97-.69-3.42-2.07-4.35-1.38-.93-3.08-1.4-5.1-1.4-1.86,0-3.66,.4-5.38,1.2-1.73,.8-3.2,1.75-4.43,2.87l-6.62-7.1Zm24.01,16.99h-1.68c-1.44,0-2.89,.07-4.35,.2-1.46,.13-2.77,.39-3.91,.76-1.14,.37-2.09,.92-2.83,1.64-.75,.72-1.12,1.66-1.12,2.83,0,.75,.17,1.38,.52,1.91,.35,.53,.78,.96,1.32,1.28,.53,.32,1.14,.55,1.83,.68,.69,.13,1.36,.2,1.99,.2,2.66,0,4.69-.73,6.1-2.19,1.41-1.46,2.11-3.44,2.11-5.94v-1.36Z"/>
        <path class="cls-1" d="M476.44,63.76c-.59-.16-1.16-.27-1.71-.32-.56-.05-1.1-.08-1.64-.08-1.75,0-3.23,.32-4.43,.95-1.2,.64-2.15,1.41-2.87,2.31-.72,.9-1.24,1.88-1.56,2.94-.32,1.06-.48,1.99-.48,2.78v20.36h-13.08V53.04h12.6v5.74h.16c1.01-2.03,2.45-3.69,4.31-4.98,1.86-1.29,4.01-1.93,6.46-1.93,.53,0,1.05,.03,1.56,.08,.5,.05,.92,.13,1.24,.24l-.56,11.57Z"/>
        <path class="cls-1" d="M512.33,92.71v-5.18h-.16c-1.28,2.02-3.1,3.58-5.46,4.67-2.37,1.09-4.88,1.63-7.54,1.63-2.98,0-5.64-.58-7.98-1.75-2.34-1.17-4.32-2.72-5.94-4.67-1.62-1.94-2.86-4.19-3.71-6.74-.85-2.55-1.28-5.21-1.28-7.98s.44-5.41,1.32-7.94c.88-2.52,2.13-4.75,3.75-6.66,1.62-1.91,3.59-3.43,5.9-4.55,2.31-1.12,4.91-1.68,7.78-1.68s5.4,.56,7.42,1.68c2.02,1.12,3.59,2.34,4.71,3.67h.16v-24.81h13.08v60.3h-12.04Zm-.48-19.94c0-1.28-.23-2.53-.68-3.75-.45-1.22-1.09-2.31-1.91-3.27-.83-.96-1.82-1.73-2.99-2.31-1.17-.58-2.5-.88-3.99-.88s-2.9,.29-4.07,.88c-1.17,.58-2.15,1.34-2.95,2.27-.8,.93-1.4,2.01-1.79,3.23-.4,1.22-.6,2.47-.6,3.75s.2,2.54,.6,3.79c.4,1.25,1,2.35,1.79,3.31,.8,.96,1.78,1.73,2.95,2.31,1.17,.59,2.53,.88,4.07,.88s2.82-.29,3.99-.88c1.17-.58,2.17-1.36,2.99-2.31,.82-.96,1.46-2.05,1.91-3.27,.45-1.22,.68-2.47,.68-3.75Z"/>
        <path class="cls-1" d="M574.14,73.33v1.59c0,.53-.03,1.04-.08,1.52h-28.79c.11,1.12,.44,2.13,1,3.03,.56,.9,1.28,1.69,2.15,2.35,.88,.67,1.86,1.18,2.95,1.56,1.09,.37,2.22,.56,3.39,.56,2.07,0,3.83-.39,5.26-1.16,1.44-.77,2.6-1.77,3.51-2.99l9.09,5.74c-1.86,2.71-4.32,4.8-7.38,6.26-3.06,1.46-6.61,2.19-10.65,2.19-2.98,0-5.8-.47-8.46-1.4-2.66-.93-4.98-2.29-6.98-4.07-1.99-1.78-3.56-3.97-4.71-6.58-1.14-2.61-1.71-5.58-1.71-8.93s.56-6.18,1.67-8.81c1.12-2.63,2.63-4.87,4.55-6.7,1.91-1.83,4.17-3.26,6.78-4.27,2.6-1.01,5.42-1.52,8.46-1.52s5.61,.49,8.06,1.48c2.45,.98,4.55,2.41,6.3,4.27,1.75,1.86,3.12,4.12,4.11,6.78,.98,2.66,1.48,5.69,1.48,9.09Zm-12.04-5.03c0-2.07-.65-3.85-1.95-5.34-1.3-1.49-3.26-2.23-5.86-2.23-1.28,0-2.45,.2-3.51,.6-1.06,.4-1.99,.94-2.79,1.64-.8,.69-1.44,1.5-1.91,2.43-.48,.93-.75,1.9-.8,2.91h16.83Z"/>
        <path class="cls-1" d="M608.36,92.71v-21.7c0-1.12-.09-2.18-.28-3.19-.19-1.01-.49-1.9-.92-2.67-.43-.77-1.02-1.38-1.79-1.83-.77-.45-1.74-.68-2.91-.68s-2.19,.23-3.07,.68c-.88,.45-1.61,1.08-2.19,1.87-.59,.8-1.02,1.72-1.32,2.75-.29,1.04-.44,2.11-.44,3.23v21.54h-13.16V52.99h12.68v5.5h.16c.48-.85,1.1-1.69,1.87-2.51,.77-.82,1.68-1.53,2.71-2.11,1.04-.58,2.17-1.06,3.39-1.44,1.22-.37,2.52-.56,3.91-.56,2.66,0,4.92,.48,6.78,1.44,1.86,.96,3.36,2.19,4.51,3.71,1.14,1.51,1.97,3.26,2.47,5.22,.5,1.97,.76,3.94,.76,5.9v24.57h-13.16Z"/>
      </g>
      <g>
        <path class="cls-1" d="M63.4,34.78l-2.17-2.17-2.35,2.35c-5.87,5.87-5.87,15.38,0,21.25l2.17,2.17,2.35-2.35c5.87-5.87,5.87-15.38,0-21.25Z"/>
        <path class="cls-1" d="M32.79,57.09h-5.79v6.27c0,15.66,12.69,28.35,28.35,28.35h5.8v-6.27c0-15.66-12.69-28.35-28.35-28.35Z"/>
        <path class="cls-1" d="M66.29,67.51v3.83h4.14c10.34,0,18.73-8.39,18.73-18.73v-3.83h-4.14c-10.34,0-18.73,8.39-18.73,18.73Z"/>
        <path class="cls-1" d="M109.95,25.76L69.96,2.68c-6.18-3.57-13.8-3.57-19.98,0L9.99,25.76C3.81,29.33,0,35.93,0,43.07v46.17c0,7.14,3.81,13.73,9.99,17.3l39.99,23.09c6.18,3.57,13.8,3.57,19.98,0l39.99-23.09c6.18-3.57,9.99-10.17,9.99-17.3V43.07c0-7.14-3.81-13.73-9.99-17.3Zm-7.47,55.61c0,5.77-3.08,11.1-8.08,13.99l-26.35,15.21c-5,2.89-11.16,2.89-16.15,0l-26.35-15.21c-5-2.89-8.08-8.22-8.08-13.99v-30.43c0-5.77,3.08-11.1,8.08-13.99l26.35-15.21c5-2.89,11.16-2.89,16.15,0l26.35,15.21c5,2.89,8.08,8.22,8.08,13.99v30.43Z"/>
      </g>
    </g>
  </g>
</svg>
